<svg width="133" height="195" viewBox="0 0 133 195" fill="none" xmlns="http://www.w3.org/2000/svg">
<path d="M96.707 181.536L99.1453 185.902L99.1518 185.898L99.1583 185.894L96.707 181.536ZM118.957 160.161L114.708 157.526L114.699 157.54L114.691 157.554L118.957 160.161ZM122.207 104.286L126.79 102.287V102.287L122.207 104.286ZM107.332 84.4114L104.131 88.2525L107.332 84.4114ZM83.707 73.4114L80.2444 69.8044L73.3941 76.3807L82.6925 78.3074L83.707 73.4114ZM124.332 34.4114L127.795 38.0183L129.332 36.5425V34.4114H124.332ZM124.332 5.91137H129.332V0.911369H124.332V5.91137ZM13.957 5.91137V0.911369H8.95703V5.91137H13.957ZM13.957 34.2864H8.95703V39.2864H13.957V34.2864ZM88.457 34.2864L91.708 38.0852L101.99 29.2864H88.457V34.2864ZM36.457 78.7864L33.2061 74.9875L30.0459 77.6919L32.1299 81.2915L36.457 78.7864ZM50.207 102.536L45.8799 105.042L48.3276 109.269L52.6112 106.92L50.207 102.536ZM88.082 107.286L84.4721 110.746V110.746L88.082 107.286ZM87.832 151.786L84.2965 148.251L84.284 148.263L84.2715 148.276L87.832 151.786ZM65.832 160.786L65.7849 155.787L65.7768 155.787L65.7687 155.787L65.832 160.786ZM47.582 155.161L44.7106 159.255L44.7312 159.269L44.752 159.283L47.582 155.161ZM36.082 138.536L40.8833 137.141L39.5136 132.429L34.777 133.71L36.082 138.536ZM6.95703 146.411L5.65197 141.585L0.700019 142.924L2.16537 147.84L6.95703 146.411ZM19.582 169.161L15.8608 172.501L15.8833 172.526L15.9062 172.551L19.582 169.161ZM40.457 184.036L38.4529 188.617L40.457 184.036ZM65.957 194.286C78.0061 194.286 89.1038 191.51 99.1453 185.902L94.2688 177.171C85.8103 181.896 76.408 184.286 65.957 184.286V194.286ZM99.1583 185.894C109.224 180.232 117.271 172.509 123.223 162.769L114.691 157.554C109.643 165.814 102.856 172.341 94.2557 177.178L99.1583 185.894ZM123.206 162.797C129.315 152.95 132.332 141.858 132.332 129.661H122.332C122.332 140.131 119.766 149.373 114.708 157.526L123.206 162.797ZM132.332 129.661C132.332 119.934 130.499 110.79 126.79 102.287L117.624 106.285C120.749 113.449 122.332 121.222 122.332 129.661H132.332ZM126.79 102.287C123.066 93.7483 117.637 86.4902 110.533 80.5703L104.131 88.2525C110.027 93.1658 114.515 99.1578 117.624 106.285L126.79 102.287ZM110.533 80.5703C103.331 74.5688 94.6807 70.579 84.7215 68.5154L82.6925 78.3074C91.2334 80.0771 98.3329 83.4206 104.131 88.2525L110.533 80.5703ZM87.1697 77.0183L127.795 38.0183L120.869 30.8044L80.2444 69.8044L87.1697 77.0183ZM129.332 34.4114V5.91137H119.332V34.4114H129.332ZM124.332 0.911369H13.957V10.9114H124.332V0.911369ZM8.95703 5.91137V34.2864H18.957V5.91137H8.95703ZM13.957 39.2864H88.457V29.2864H13.957V39.2864ZM85.2061 30.4875L33.2061 74.9875L39.708 82.5852L91.708 38.0852L85.2061 30.4875ZM32.1299 81.2915L45.8799 105.042L54.5342 100.031L40.7842 76.2812L32.1299 81.2915ZM52.6112 106.92C57.1327 104.441 61.5212 103.286 65.832 103.286V93.2864C59.6429 93.2864 53.6147 94.9652 47.8029 98.1523L52.6112 106.92ZM65.832 103.286C73.6929 103.286 79.7581 105.827 84.4721 110.746L91.692 103.827C84.906 96.7458 76.1379 93.2864 65.832 93.2864V103.286ZM84.4721 110.746C89.261 115.743 91.707 121.931 91.707 129.661H101.707C101.707 119.559 98.4031 110.83 91.692 103.827L84.4721 110.746ZM91.707 129.661C91.707 137.251 89.219 143.328 84.2965 148.251L91.3676 155.322C98.2784 148.411 101.707 139.739 101.707 129.661H91.707ZM84.2715 148.276C79.4294 153.187 73.3888 155.715 65.7849 155.787L65.8792 165.786C75.9419 165.691 84.568 162.219 91.3926 155.297L84.2715 148.276ZM65.7687 155.787C60.2484 155.857 55.1707 154.306 50.4121 151.039L44.752 159.283C51.1601 163.683 58.249 165.883 65.8953 165.786L65.7687 155.787ZM50.4534 151.068C45.8911 147.868 42.6809 143.325 40.8833 137.141L31.2808 139.932C33.6498 148.081 38.1063 154.622 44.7106 159.255L50.4534 151.068ZM34.777 133.71L5.65197 141.585L8.2621 151.238L37.3871 143.363L34.777 133.71ZM2.16537 147.84C4.95216 157.189 9.51608 165.431 15.8608 172.501L23.3032 165.822C17.9813 159.892 14.1286 152.967 11.7487 144.983L2.16537 147.84ZM15.9062 172.551C22.2919 179.476 29.8196 184.84 38.4529 188.617L42.4611 179.456C35.0945 176.233 28.7055 171.68 23.2579 165.772L15.9062 172.551ZM38.4529 188.617C47.1045 192.402 56.2889 194.286 65.957 194.286V184.286C57.6251 184.286 49.8096 182.671 42.4611 179.456L38.4529 188.617Z" fill="white" fill-opacity="0.8"/>
</svg>
