<svg width="75" height="190" viewBox="0 0 75 190" fill="none" xmlns="http://www.w3.org/2000/svg">
<path d="M38.75 185H33.75V190H38.75V185ZM69.5 185V190H74.5V185H69.5ZM69.5 4.99999H74.5V-7.62939e-06H69.5V4.99999ZM38.75 4.99999V-7.62939e-06H37.3651L36.1775 0.712524L38.75 4.99999ZM5 25.25L2.42752 20.9625L9.53674e-07 22.419V25.25H5ZM5 58.5H9.53674e-07V67.4153L7.60725 62.7664L5 58.5ZM38.75 37.875H43.75V28.9597L36.1428 33.6086L38.75 37.875ZM38.75 190H69.5V180H38.75V190ZM74.5 185V4.99999H64.5V185H74.5ZM69.5 -7.62939e-06H38.75V9.99999H69.5V-7.62939e-06ZM36.1775 0.712524L2.42752 20.9625L7.57248 29.5375L41.3225 9.28746L36.1775 0.712524ZM9.53674e-07 25.25V58.5H10V25.25H9.53674e-07ZM7.60725 62.7664L41.3573 42.1414L36.1428 33.6086L2.39275 54.2336L7.60725 62.7664ZM33.75 37.875V185H43.75V37.875H33.75Z" fill="white" fill-opacity="0.8"/>
</svg>
