<svg width="123" height="194" viewBox="0 0 123 194" fill="none" xmlns="http://www.w3.org/2000/svg">
<path d="M5.5 188.75H0.5V193.75H5.5V188.75ZM129.375 188.75V193.75H134.375V188.75H129.375ZM129.375 160.375H134.375V155.375H129.375V160.375ZM52.125 160.375L48.8089 156.633L38.9439 165.375H52.125V160.375ZM98.25 119.5L94.951 115.743L94.9424 115.75L94.9339 115.758L98.25 119.5ZM115.375 103.125L111.72 99.7134L111.718 99.7156L115.375 103.125ZM125.875 87L130.508 88.8801L130.513 88.8685L130.517 88.8569L125.875 87ZM121.375 34.25L117.046 36.752L117.06 36.7756L117.074 36.799L121.375 34.25ZM99.875 13L97.4029 17.3461L97.418 17.3547L97.4332 17.3632L99.875 13ZM36 12.625L38.2982 17.0655L38.2982 17.0655L36 12.625ZM13.75 33.375L18.041 35.9416L18.041 35.9416L13.75 33.375ZM5.75 64.75H0.750001V69.75H5.75V64.75ZM36.75 64.75V69.75H41.9038L41.7477 64.5986L36.75 64.75ZM40.5 49.375L36.1401 46.9273L36.1401 46.9273L40.5 49.375ZM51.625 38L54.1864 42.2941L54.1974 42.2875L54.2083 42.2809L51.625 38ZM90 42.625L86.3397 46.0312L86.3641 46.0575L86.389 46.0834L90 42.625ZM94.875 78.75L90.4186 76.4827L90.4027 76.514L90.3872 76.5455L94.875 78.75ZM82.5 93.875L85.8267 97.6077L85.8372 97.5983L85.8477 97.5889L82.5 93.875ZM5.5 162.5L2.17329 158.767L0.5 160.259V162.5H5.5ZM5.5 193.75H129.375V183.75H5.5V193.75ZM134.375 188.75V160.375H124.375V188.75H134.375ZM129.375 155.375H52.125V165.375H129.375V155.375ZM55.4412 164.117L101.566 123.242L94.9339 115.758L48.8089 156.633L55.4412 164.117ZM101.549 123.257C108.467 117.183 114.304 111.607 119.032 106.534L111.718 99.7156C107.279 104.477 101.7 109.817 94.951 115.743L101.549 123.257ZM119.03 106.537C124.071 101.136 127.923 95.2511 130.508 88.8801L121.242 85.1199C119.161 90.2489 116.012 95.1143 111.72 99.7134L119.03 106.537ZM130.517 88.8569C133.156 82.2598 134.375 74.3765 134.375 65.375H124.375C124.375 73.5401 123.26 80.0736 121.233 85.143L130.517 88.8569ZM134.375 65.375C134.375 52.8411 131.521 41.5644 125.676 31.701L117.074 36.799C121.895 44.9356 124.375 54.4089 124.375 65.375H134.375ZM125.704 31.7479C120.008 21.8922 112.192 14.1631 102.317 8.63677L97.4332 17.3632C105.725 22.0036 112.242 28.4411 117.046 36.752L125.704 31.7479ZM102.347 8.65387C92.4309 3.01346 81.2289 0.249996 68.875 0.249996V10.25C79.6878 10.25 89.1524 12.6532 97.4029 17.3461L102.347 8.65387ZM68.875 0.249996C55.7874 0.249996 44.0184 2.8452 33.7018 8.18446L38.2982 17.0655C46.9816 12.5715 57.1292 10.25 68.875 10.25V0.249996ZM33.7018 8.18446C23.4019 13.5151 15.2841 21.0695 9.459 30.8084L18.041 35.9416C22.8826 27.8471 29.5981 21.5682 38.2982 17.0655L33.7018 8.18446ZM9.459 30.8084C3.59372 40.6144 0.750001 51.9884 0.750001 64.75H10.75C10.75 53.5116 13.2396 43.9689 18.041 35.9416L9.459 30.8084ZM5.75 69.75H36.75V59.75H5.75V69.75ZM41.7477 64.5986C41.6083 59.9971 42.6428 55.7719 44.8599 51.8227L36.1401 46.9273C33.0239 52.4781 31.5584 58.5029 31.7523 64.9014L41.7477 64.5986ZM44.8599 51.8227C47.0919 47.8469 50.1749 44.6869 54.1864 42.2941L49.0636 33.7059C43.5751 36.9797 39.2414 41.4031 36.1401 46.9273L44.8599 51.8227ZM54.2083 42.2809C58.1804 39.884 62.8101 38.625 68.25 38.625V28.625C61.1899 28.625 54.7363 30.2826 49.0417 33.7191L54.2083 42.2809ZM68.25 38.625C75.9143 38.625 81.7911 41.1432 86.3397 46.0312L93.6603 39.2188C87.0422 32.1068 78.419 28.625 68.25 28.625V38.625ZM86.389 46.0834C91.0728 50.9738 93.5 57.1501 93.5 65H103.5C103.5 54.8499 100.261 46.1095 93.611 39.1666L86.389 46.0834ZM93.5 65C93.5 68.4819 92.551 72.2915 90.4186 76.4827L99.3314 81.0173C102.032 75.7085 103.5 70.3514 103.5 65H93.5ZM90.3872 76.5455C88.4389 80.5117 84.8118 85.0596 79.1523 90.1611L85.8477 97.5889C92.0215 92.0238 96.6444 86.4883 99.3628 80.9545L90.3872 76.5455ZM79.1733 90.1423L2.17329 158.767L8.82671 166.233L85.8267 97.6077L79.1733 90.1423ZM0.5 162.5V188.75H10.5V162.5H0.5Z" fill="white" fill-opacity="0.8"/>
</svg>
