<svg width="24" height="24" viewBox="0 0 24 24" fill="none" xmlns="http://www.w3.org/2000/svg">
<g clip-path="url(#clip0)">
<path d="M5.37171 23.5147C5.10876 23.5147 4.84765 23.4327 4.6248 23.2715C4.20969 22.9707 4.01578 22.4536 4.12876 21.9546L5.67274 15.1533L0.436525 10.5613C0.0516272 10.2253 -0.0954102 9.69317 0.0626139 9.20628C0.220638 8.7203 0.650581 8.37624 1.15963 8.32918L8.08778 7.7002L10.8269 1.29006C11.0289 0.8191 11.4889 0.514954 11.9999 0.514954C12.511 0.514954 12.971 0.8191 13.1729 1.28896L15.9121 7.7002L22.8391 8.32918C23.3493 8.37514 23.7792 8.7203 23.9373 9.20628C24.0953 9.69225 23.9492 10.2253 23.5643 10.5613L18.328 15.1524L19.872 21.9535C19.9852 22.4536 19.7911 22.9707 19.3762 23.2706C18.9621 23.5705 18.4101 23.5936 17.9741 23.3316L11.9999 19.7615L6.02578 23.3336C5.82381 23.4535 5.59877 23.5147 5.37171 23.5147ZM11.9999 18.2235C12.227 18.2235 12.4518 18.2845 12.654 18.4044L18.2921 21.7766L16.835 15.3573C16.731 14.9005 16.886 14.4235 17.2391 14.1144L22.1832 9.77831L15.642 9.1843C15.171 9.14127 14.766 8.84518 14.582 8.41121L11.9999 2.36199L9.41478 8.41213C9.23277 8.84317 8.82773 9.13926 8.35787 9.18229L1.81571 9.7763L6.75969 14.1123C7.11382 14.4224 7.26873 14.8984 7.16381 15.3564L5.70772 21.7755L11.3459 18.4044C11.5478 18.2845 11.7729 18.2235 11.9999 18.2235ZM8.03486 7.82416C8.03486 7.82416 8.03486 7.82526 8.03377 7.82618L8.03486 7.82416ZM15.963 7.82123L15.9641 7.82325C15.9641 7.82215 15.9641 7.82215 15.963 7.82123Z" fill="white" fill-opacity="0.3"/>
</g>
<defs>
<clipPath id="clip0">
<rect width="24" height="24" fill="white"/>
</clipPath>
</defs>
</svg>
