<svg xmlns="http://www.w3.org/2000/svg" width="512" height="512" viewBox="0 0 512 512"><path xmlns="http://www.w3.org/2000/svg" d="M437.01953 74.98047C388.66797 26.6289 324.37891 0 256 0 187.61719 0 123.33203 26.6289 74.98047 74.98047 26.6289 123.33203 0 187.61719 0 256c0 68.3789 26.6289 132.66797 74.98047 181.01953C123.33203 485.3711 187.61719 512 256 512c68.3789 0 132.66797-26.6289 181.01953-74.98047C485.3711 388.66797 512 324.37891 512 256c0-68.38281-26.6289-132.66797-74.98047-181.01953zM128.33984 442.38672C139.04687 380.73828 192.46875 335.26562 256 335.26562c63.53516 0 116.95312 45.47266 127.66016 107.1211C347.3125 467.35937 303.33594 482 256 482s-91.3125-14.64063-127.66016-39.61328zm46.26172-218.51953c0-44.88672 36.51563-81.39844 81.39844-81.39844s81.39844 36.51562 81.39844 81.39844c0 44.88281-36.51563 81.39843-81.39844 81.39843S174.60156 268.75 174.60156 223.8672zm235.04297 197.71093c-8.07422-28.69921-24.10937-54.73828-46.58594-75.07812-13.78906-12.48047-29.48437-22.32813-46.35937-29.26953 30.5-19.89453 50.70312-54.3125 50.70312-93.36328 0-61.42578-49.97656-111.39844-111.40234-111.39844s-111.39844 49.97266-111.39844 111.39844c0 39.05078 20.20313 73.46875 50.69922 93.36328-16.8711 6.9414-32.57031 16.78515-46.35937 29.26562-22.47266 20.33985-38.51172 46.37891-46.58594 75.07813C57.8828 380.27344 30 321.33594 30 256 30 131.38281 131.38281 30 256 30s226 101.38281 226 226c0 65.33984-27.88281 124.27734-72.35547 165.57812zm0 0" fill="currentColor"/></svg>
