<svg width="34" height="34" viewBox="0 0 34 34" fill="none" xmlns="http://www.w3.org/2000/svg">
<path d="M17.01 3.06193C21.5548 3.06193 22.093 3.08185 23.8804 3.16155C25.5415 3.23462 26.4385 3.51358 27.0365 3.74604C27.8272 4.05157 28.3987 4.42352 28.99 5.01465C29.588 5.61242 29.9535 6.17699 30.2591 6.96738C30.4917 7.56515 30.7708 8.46845 30.8439 10.1223C30.9236 11.9156 30.9435 12.4536 30.9435 16.99C30.9435 21.5331 30.9236 22.0711 30.8439 23.8578C30.7708 25.5183 30.4917 26.4149 30.2591 27.0127C29.9535 27.8031 29.5814 28.3743 28.99 28.9654C28.392 29.5632 27.8272 29.9285 27.0365 30.234C26.4385 30.4665 25.5349 30.7455 23.8804 30.8185C22.0864 30.8982 21.5482 30.9181 17.01 30.9181C12.4651 30.9181 11.9269 30.8982 10.1395 30.8185C8.47841 30.7455 7.5814 30.4665 6.98339 30.234C6.19269 29.9285 5.62126 29.5566 5.0299 28.9654C4.43189 28.3677 4.06644 27.8031 3.7608 27.0127C3.52824 26.4149 3.24917 25.5116 3.17608 23.8578C3.09635 22.0645 3.07641 21.5265 3.07641 16.99C3.07641 12.447 3.09635 11.909 3.17608 10.1223C3.24917 8.46181 3.52824 7.56515 3.7608 6.96738C4.06644 6.17699 4.43854 5.60578 5.0299 5.01465C5.62791 4.41688 6.19269 4.05157 6.98339 3.74604C7.5814 3.51358 8.48505 3.23462 10.1395 3.16155C11.9269 3.08185 12.4651 3.06193 17.01 3.06193ZM17.01 0C12.392 0 11.814 0.0199258 10 0.0996288C8.19269 0.179332 6.95017 0.471576 5.87375 0.890018C4.75083 1.32838 3.80066 1.90623 2.85714 2.85603C1.90698 3.79918 1.3289 4.74898 0.890365 5.86482C0.471761 6.94745 0.179402 8.18285 0.0996678 9.98945C0.0199336 11.8093 0 12.3872 0 17.0033C0 21.6195 0.0199336 22.1973 0.0996678 24.0105C0.179402 25.8172 0.471761 27.0592 0.890365 28.1352C1.3289 29.2577 1.90698 30.2075 2.85714 31.1506C3.80066 32.0938 4.75083 32.6783 5.86711 33.11C6.95017 33.5284 8.18605 33.8207 9.99335 33.9004C11.8073 33.9801 12.3854 34 17.0033 34C21.6213 34 22.1993 33.9801 24.0133 33.9004C25.8206 33.8207 27.0631 33.5284 28.1395 33.11C29.2558 32.6783 30.206 32.0938 31.1495 31.1506C32.093 30.2075 32.6777 29.2577 33.1096 28.1418C33.5282 27.0592 33.8206 25.8238 33.9003 24.0172C33.9801 22.2039 34 21.6261 34 17.01C34 12.3938 33.9801 11.816 33.9003 10.0027C33.8206 8.19613 33.5282 6.95409 33.1096 5.8781C32.691 4.74897 32.113 3.79918 31.1628 2.85603C30.2193 1.91287 29.2691 1.32838 28.1528 0.896659C27.0698 0.478218 25.8339 0.185974 24.0266 0.106271C22.206 0.0199258 21.6279 0 17.01 0Z" fill="#FFEE32"/>
<path d="M17.01 8.26929C12.1861 8.26929 8.27246 12.1814 8.27246 17.0035C8.27246 21.8256 12.1861 25.7377 17.01 25.7377C21.8339 25.7377 25.7475 21.8256 25.7475 17.0035C25.7475 12.1814 21.8339 8.26929 17.01 8.26929ZM17.01 22.6691C13.8804 22.6691 11.3422 20.1319 11.3422 17.0035C11.3422 13.8751 13.8804 11.3379 17.01 11.3379C20.1396 11.3379 22.6778 13.8751 22.6778 17.0035C22.6778 20.1319 20.1396 22.6691 17.01 22.6691Z" fill="#FFEE32"/>
<path d="M28.1325 7.92387C28.1325 9.05301 27.2155 9.96297 26.0926 9.96297C24.963 9.96297 24.0527 9.04637 24.0527 7.92387C24.0527 6.79472 24.9697 5.88477 26.0926 5.88477C27.2155 5.88477 28.1325 6.80137 28.1325 7.92387Z" fill="#FFEE32"/>
</svg>
