<svg width="34" height="35" viewBox="0 0 34 35" fill="none" xmlns="http://www.w3.org/2000/svg">
<path d="M29.0181 5.30806C22.3763 -1.33393 11.6248 -1.33499 4.98191 5.30806C-1.66014 11.95 -1.66113 22.7013 4.98191 29.3443C11.6238 35.9863 22.3752 35.9873 29.0181 29.3443C35.6602 22.7023 35.6611 11.951 29.0181 5.30806ZM28.3078 26.9215C27.5136 26.2114 26.6642 25.583 25.7689 25.0414C26.3606 22.9972 26.7113 20.7477 26.7941 18.4093H31.791C31.5651 21.5612 30.3541 24.5179 28.3078 26.9215ZM2.20892 18.4093H7.20584C7.28871 20.7477 7.63932 22.9972 8.23111 25.0414C7.33575 25.583 6.48631 26.2114 5.69221 26.9215C3.64591 24.5179 2.43492 21.5612 2.20892 18.4093ZM5.69228 7.73084C6.48638 8.44094 7.33582 9.06936 8.23118 9.61092C7.63938 11.6552 7.28878 13.9047 7.2059 16.2431H2.20892C2.43492 13.0912 3.64591 10.1345 5.69228 7.73084ZM15.9169 9.8348C14.1505 9.70846 12.4473 9.27339 10.8683 8.55566C11.7867 6.19094 13.4796 3.35471 15.9169 2.65185V9.8348ZM15.9169 12.005V16.2432H9.37297C9.44794 14.2651 9.72821 12.3656 10.1943 10.6276C11.9887 11.4121 13.9185 11.8805 15.9169 12.005ZM15.9169 18.4093V22.6474C13.9185 22.7719 11.9887 23.2404 10.1943 24.0248C9.72821 22.2868 9.44794 20.3874 9.37297 18.4093H15.9169ZM15.9169 24.8176V32.0005C13.4797 31.2977 11.7868 28.4618 10.8683 26.0968C12.4473 25.379 14.1505 24.944 15.9169 24.8176ZM18.0831 24.8176C19.8495 24.944 21.5527 25.379 23.1317 26.0968C22.2133 28.4616 20.5205 31.2977 18.0831 32.0005V24.8176ZM18.0831 22.6474V18.4093H24.6271C24.5521 20.3874 24.2718 22.2868 23.8057 24.0248C22.0113 23.2404 20.0815 22.7719 18.0831 22.6474ZM18.0831 16.2432V12.005C20.0815 11.8805 22.0113 11.4121 23.8057 10.6276C24.2718 12.3656 24.5521 14.2651 24.6271 16.2432H18.0831ZM18.0831 9.8348V2.65191C20.5205 3.35478 22.2134 6.191 23.1317 8.55573C21.5527 9.27339 19.8495 9.70846 18.0831 9.8348ZM22.948 3.73325C24.3344 4.34038 25.6279 5.16361 26.7874 6.18503C26.2355 6.67166 25.6531 7.1129 25.045 7.5075C24.505 6.17037 23.8151 4.87093 22.948 3.73325ZM8.95495 7.5075C8.34683 7.1129 7.76452 6.67166 7.21254 6.18503C8.37204 5.16361 9.66551 4.34038 11.0519 3.73325C10.1849 4.87106 9.49499 6.1705 8.95495 7.5075ZM8.95501 27.1449C9.49499 28.482 10.185 29.7815 11.052 30.9192C9.66558 30.3121 8.37211 29.4888 7.2126 28.4674C7.76452 27.9808 8.3469 27.5395 8.95501 27.1449ZM25.045 27.1449C25.6531 27.5395 26.2355 27.9808 26.7874 28.4673C25.6279 29.4888 24.3344 30.312 22.948 30.9191C23.815 29.7816 24.505 28.4821 25.045 27.1449ZM26.7942 16.2432C26.7113 13.9048 26.3607 11.6552 25.7689 9.61099C26.6643 9.06943 27.5136 8.441 28.3078 7.7309C30.3541 10.1345 31.5651 13.0912 31.7911 16.2432H26.7942Z" fill="white"/>
</svg>
