<svg width="190" height="190" viewBox="0 0 190 190" fill="none" xmlns="http://www.w3.org/2000/svg">
<g opacity="0.8">
<path d="M60.8113 87.5719C56.1317 86.2246 51.4521 85.541 46.9 85.541C39.8707 85.541 34.0052 87.1474 29.4572 89.1145C33.8418 73.0626 44.3749 45.3654 65.3573 42.2463C67.3005 41.9573 68.8929 40.5522 69.4231 38.6608L74.009 22.2582C74.3956 20.871 74.1664 19.3862 73.3752 18.1824C72.584 16.9786 71.3124 16.1754 69.8874 15.9801C68.3389 15.7688 66.7604 15.6612 65.1959 15.6612C40.0102 15.6612 15.0676 41.9493 4.54249 79.5898C-1.63585 101.673 -3.4475 134.873 11.7712 155.77C20.2873 167.463 32.7118 173.707 48.6997 174.331C48.7655 174.333 48.8293 174.335 48.895 174.335C68.6219 174.335 86.1145 161.049 91.4359 142.03C94.6148 130.659 93.1778 118.735 87.3861 108.445C81.6562 98.2705 72.2193 90.8544 60.8113 87.5719Z" fill="white" fill-opacity="0.17"/>
<path d="M184.296 108.447C178.566 98.2705 169.13 90.8544 157.722 87.5719C153.042 86.2246 148.362 85.541 143.812 85.541C136.783 85.541 130.916 87.1474 126.367 89.1145C130.752 73.0626 141.285 45.3654 162.27 42.2463C164.213 41.9573 165.803 40.5522 166.335 38.6608L170.921 22.2582C171.308 20.871 171.079 19.3862 170.288 18.1824C169.498 16.9786 168.227 16.1754 166.8 15.9801C165.253 15.7688 163.675 15.6612 162.108 15.6612C136.922 15.6612 111.98 41.9493 101.453 79.5898C95.2765 101.673 93.4648 134.873 108.685 155.774C117.2 167.465 129.626 173.711 145.612 174.333C145.678 174.335 145.742 174.337 145.809 174.337C165.534 174.337 183.029 161.051 188.35 142.032C191.525 130.661 190.086 118.735 184.296 108.447Z" fill="white" fill-opacity="0.17"/>
</g>
</svg>
